<svg preserveAspectRatio="none" overflow="visible" style="display: block;" width="165" height="51.2109" viewBox="0 0 165 51.2109" fill="none" xmlns="http://www.w3.org/2000/svg">
<g id="Group">
<g id="Vector">
</g>
<path id="Vector_2" d="M54.9589 6.47731C44.4809 6.47731 35.986 14.9732 35.986 25.4502C35.986 35.9283 44.4809 44.4231 54.9589 44.4231C65.436 44.4231 73.9319 35.9283 73.9319 25.4502C73.9319 14.9732 65.436 6.47731 54.9589 6.47731ZM54.9591 38.2008C47.9875 38.2008 42.3368 32.4895 42.3368 25.449C42.3368 18.4085 47.9875 12.6996 54.9591 12.6996C61.9298 12.6996 67.583 18.4085 67.583 25.449C67.583 32.4895 61.9298 38.2008 54.9591 38.2008ZM149.342 19.928C148.385 19.9281 147.531 20.1428 146.634 20.6605C144.216 22.0567 143.275 24.8297 143.966 27.2824L140.506 29.2801V20.9432C142.992 20.3274 144.937 18.1055 144.937 15.3C144.937 12.3399 142.965 10.9186 139.117 7.07017C135.254 10.9335 133.298 12.3324 133.298 15.3C133.298 17.9559 135.126 20.3095 137.718 20.9453V29.279L134.26 27.2822C134.951 24.8296 134.01 22.057 131.592 20.661C130.695 20.1433 129.84 19.9285 128.884 19.9285C127.105 19.9285 124.973 20.67 121.555 21.5858C122.969 26.8631 123.202 29.2567 125.772 30.7405C126.677 31.2626 127.682 31.5174 128.682 31.5174C130.204 31.5174 131.709 30.9214 132.825 29.7833L137.718 32.6087V36.6708H125.75V39.4759H152.476V36.6708H140.506V32.6086L145.401 29.7827C146.517 30.9208 148.022 31.5169 149.544 31.5169C150.544 31.5169 151.549 31.2621 152.454 30.74C155.024 29.2562 155.257 26.8626 156.671 21.5853C153.253 20.6695 151.121 19.9279 149.342 19.928ZM131.303 27.2164C130.756 28.1637 129.775 28.7293 128.678 28.7293C128.144 28.7293 127.62 28.5898 127.163 28.3259C126.137 27.7339 125.809 26.9128 124.939 23.5418C126.683 23.055 127.971 22.7166 128.88 22.7166C129.378 22.7166 129.746 22.8173 130.194 23.0756C131.641 23.9113 132.139 25.7689 131.303 27.2164ZM139.113 18.3313C137.442 18.3313 136.082 16.9715 136.082 15.3C136.082 14.1163 136.629 13.4214 139.113 10.9824C141.597 13.4232 142.144 14.1205 142.144 15.3C142.144 16.9715 140.785 18.3313 139.113 18.3313ZM151.055 28.3254C150.598 28.5894 150.074 28.7288 149.54 28.7288C148.443 28.7288 147.462 28.1632 146.915 27.2159C146.523 26.5368 146.41 25.7054 146.607 24.935C146.808 24.147 147.312 23.4864 148.024 23.0751C148.472 22.8168 148.84 22.7162 149.339 22.7162C150.247 22.7162 151.535 23.0545 153.279 23.5413C152.409 26.9123 152.081 27.7335 151.055 28.3254ZM139.113 0C125.058 0 113.663 11.3963 113.663 25.4502C113.663 39.5055 125.058 50.9004 139.113 50.9004C153.167 50.9004 164.563 39.5055 164.563 25.4502C164.563 11.3963 153.167 0 139.113 0ZM139.113 48.0953C126.626 48.0953 116.468 37.9367 116.468 25.4502C116.468 12.9636 126.626 2.80513 139.113 2.80513C151.6 2.80513 161.758 12.9636 161.758 25.4502C161.758 37.9367 151.6 48.0953 139.113 48.0953ZM92.4702 23.201L107.92 43.1989H99.518H99.5163L88.0824 28.1018L83.0613 33.6842V43.1991H76.941V7.70137H83.0613V24.5404L98.1674 7.70137H106.348L92.4702 23.201ZM0.0292969 43.1991H7.44262L12.4412 35.5487H27.1116V43.1991H33.2319V7.70137H23.3264L0.0292969 43.1991ZM27.1116 29.9894H16.0735L27.1116 13.0954V29.9894Z" fill="#005E3F"/>
</g>
</svg>
