<svg preserveAspectRatio="none" overflow="visible" style="display: block;" width="57.1207" height="57.1207" viewBox="0 0 57.1207 57.1207" fill="none" xmlns="http://www.w3.org/2000/svg">
<g id="icon/footer-6">
<g id="Vector">
</g>
<path id="Vector_2" d="M51.2775 15.4696C52.3604 19.7061 52.3604 28.5598 52.3604 28.5598C52.3604 28.5598 52.3604 37.4135 51.2775 41.65C50.6706 43.9943 48.8974 45.8388 46.6602 46.4695C42.5904 47.6 28.5601 47.6 28.5601 47.6C28.5601 47.6 14.5298 47.6 10.4599 46.4695C8.21081 45.8388 6.44959 43.9943 5.84268 41.65C4.75977 37.4135 4.75977 28.5598 4.75977 28.5598C4.75977 28.5598 4.75977 19.7061 5.84268 15.4696C6.44959 13.1253 8.22271 11.2808 10.4599 10.65C14.5298 9.51953 28.5601 9.51953 28.5601 9.51953C28.5601 9.51953 42.5904 9.51953 46.6602 10.65C48.9093 11.2808 50.6706 13.1253 51.2775 15.4696ZM23.8 36.8899L38.0802 28.5598L23.8 20.2297V36.8899Z" fill="white"/>
<g id="Vector_3">
</g>
</g>
</svg>
